<svg xmlns="http://www.w3.org/2000/svg" width="19" height="21" viewBox="0 0 19 21">
    <path fill="#192230" fill-rule="nonzero" d="M16.448 1.938c1.201 0 2.159.958 2.159 2.159V18.54a2.148 2.148 0 0 1-2.159 2.159H2.158A2.17 2.17 0 0 1 0 18.515V4.097c0-1.201.958-2.159 2.159-2.159h2.13v-.813C4.29.493 4.782 0 5.415 0 6.047 0 6.54.493 6.54 1.125v.813h5.527v-.813C12.067.493 12.56 0 13.192 0c.633 0 1.126.493 1.126 1.125v.813h2.13zm-.091 7.961H2.25v8.55h14.107V9.9zM2.25 7.649h14.132v-3.46h-2.039v1.329c0 .633-.492 1.125-1.125 1.125a1.111 1.111 0 0 1-1.125-1.125v-1.33H6.54v1.33c0 .633-.493 1.125-1.125 1.125a1.111 1.111 0 0 1-1.126-1.125v-1.33H2.25v3.46z"/>
</svg>
