<svg xmlns="http://www.w3.org/2000/svg" width="14" height="14" viewBox="0 0 14 14">
    <g fill="none" fill-rule="evenodd">
        <path fill="#192230" fill-rule="nonzero" d="M0 2.006C0 .898.897 0 2.006 0h9.988C13.102 0 14 .897 14 2.006v9.988A2.005 2.005 0 0 1 11.994 14H2.006A2.005 2.005 0 0 1 0 11.994V2.006z"/>
        <path fill="#FFF" d="M6.18 8.243l3.857-3.858a.607.607 0 0 1 .85 0 .603.603 0 0 1-.001.849l-4.24 4.24a.592.592 0 0 1-.022.02.594.594 0 0 1-.862.028L3.77 7.53a.601.601 0 0 1 .007-.842.594.594 0 0 1 .841-.007L6.18 8.243z"/>
    </g>
</svg>
