<svg xmlns="http://www.w3.org/2000/svg" width="33" height="41" viewBox="0 0 33 41">
    <g fill="none" fill-rule="evenodd">
        <path d="M-6-2h45v45H-6z" opacity=".1"/>
        <path fill="#FFF" d="M2.036 1.214h28.929v38.571H2.036z"/>
        <path fill="#FCF6B3" d="M19.438 6.036H6.858v6.32l-4.822 2.422V1.214h27l-9.598 4.822z"/>
        <path fill="#192230" fill-rule="nonzero" d="M3.107 2.286v36.428h26.786V2.286H3.107zM2.036.143h28.928c.592 0 1.072.48 1.072 1.071v38.572c0 .591-.48 1.071-1.072 1.071H2.036c-.592 0-1.072-.48-1.072-1.071V1.214c0-.591.48-1.071 1.072-1.071z"/>
        <path fill="#192230" fill-rule="nonzero" d="M7.929 7.107v4.607H25.07V7.107H7.93zM6.857 4.964h19.286c.592 0 1.071.48 1.071 1.072v6.75c0 .591-.48 1.071-1.071 1.071H6.857c-.592 0-1.071-.48-1.071-1.071v-6.75c0-.592.48-1.072 1.071-1.072zM8.786 21.571a3 3 0 1 1 0-6 3 3 0 0 1 0 6zm0-2.142a.857.857 0 1 0 0-1.715.857.857 0 0 0 0 1.715zM8.786 29.286a3 3 0 1 1 0-6 3 3 0 0 1 0 6zm0-2.143a.857.857 0 1 0 0-1.714.857.857 0 0 0 0 1.714zM8.786 37a3 3 0 1 1 0-6 3 3 0 0 1 0 6zm0-2.143a.857.857 0 1 0 0-1.714.857.857 0 0 0 0 1.714zM16.5 21.571a3 3 0 1 1 0-6 3 3 0 0 1 0 6zm0-2.142a.857.857 0 1 0 0-1.715.857.857 0 0 0 0 1.715zM16.5 29.286a3 3 0 1 1 0-6 3 3 0 0 1 0 6zm0-2.143a.857.857 0 1 0 0-1.714.857.857 0 0 0 0 1.714zM16.5 37a3 3 0 1 1 0-6 3 3 0 0 1 0 6zm0-2.143a.857.857 0 1 0 0-1.714.857.857 0 0 0 0 1.714zM24.214 21.571a3 3 0 1 1 0-6 3 3 0 0 1 0 6zm0-2.142a.857.857 0 1 0 0-1.715.857.857 0 0 0 0 1.715zM24.214 29.286a3 3 0 1 1 0-6 3 3 0 0 1 0 6zm0-2.143a.857.857 0 1 0 0-1.714.857.857 0 0 0 0 1.714z"/>
        <path fill="#5D90E3" fill-rule="nonzero" d="M24.214 37a3 3 0 1 1 0-6 3 3 0 0 1 0 6zm0-2.143a.857.857 0 1 0 0-1.714.857.857 0 0 0 0 1.714z"/>
    </g>
</svg>
