<svg xmlns="http://www.w3.org/2000/svg" width="41" height="45" viewBox="0 0 41 45">
    <g fill="none" fill-rule="evenodd">
        <path d="M-2 0h45v45H-2z" opacity=".1"/>
        <path fill="#FFF" d="M6.768 7.428l9.92-6.357 13.676 2.177v15.475l8.5 5.235v14.446l-27.436 4.134-10.214-5.801V21.913l5.554-1.06z"/>
        <path fill="#FCF6B3" d="M30.616 9.992l-9.966-5.98v14.95l9.966 5.98z"/>
        <path fill="#192230" fill-rule="nonzero" d="M20.801 8.931c.528.075.92.527.92 1.06v14.95c0 .653-.578 1.154-1.223 1.062L6.544 24.009a1.071 1.071 0 0 1-.92-1.06V7.998c0-.653.578-1.154 1.224-1.061L20.8 8.93zm-13.034.303v12.785l11.811 1.687V10.921L7.768 9.234zm22.698-4.162L16.51 3.08c-1.414-.202-1.11-2.323.303-2.121L30.768 2.95c1.414.202 1.111 2.323-.303 2.121zM21.72 23.05l7.824-4.695V5.904l-7.824 4.694V23.05zM20.098 9.073l9.967-5.98a1.071 1.071 0 0 1 1.623.919v14.95c0 .376-.198.725-.52.919L21.2 25.86a1.071 1.071 0 0 1-1.623-.92V9.992c0-.376.198-.724.52-.918zM6.145 7.08l9.967-5.98c1.225-.735 2.327 1.102 1.102 1.837l-9.967 5.98C6.022 9.652 4.92 7.815 6.145 7.08z"/>
        <path fill="#FCF6B3" d="M11.181 28.63v14.95L1.214 37.6V22.65z"/>
        <path fill="#192230" fill-rule="nonzero" d="M12.252 42.344l11.811-1.687V27.872l-11.81 1.687v12.785zM11.03 27.57l13.953-1.993a1.071 1.071 0 0 1 1.223 1.06v14.95c0 .534-.392.986-.92 1.061L11.333 44.64a1.071 1.071 0 0 1-1.223-1.06V28.63c0-.534.392-.986.92-1.061zm-8.744-3.027v12.451l7.824 4.694v-12.45l-7.824-4.695zm9.966 4.088v14.95c0 .833-.908 1.347-1.622.918l-9.967-5.98a1.071 1.071 0 0 1-.52-.918V22.65c0-.833.908-1.348 1.623-.92l9.966 5.98c.323.194.52.543.52.92zM26.206 40.35l11.81-1.687V25.878l-11.81 1.687v12.786zm-1.223-14.775l13.954-1.994a1.071 1.071 0 0 1 1.222 1.06v14.951c0 .533-.392.985-.92 1.06l-13.953 1.994a1.071 1.071 0 0 1-1.223-1.06v-14.95c0-.534.392-.986.92-1.061zM1.366 23.71l-.303-2.121 5.323-.76.303 2.12-5.323.761zm21.232.155l3.088 1.852c1.225.735.122 2.573-1.103 1.838l-3.088-1.853c-1.225-.735-.122-2.572 1.103-1.837zm8.637-5.183l8.404 5.042c1.225.735.123 2.573-1.102 1.838l-8.404-5.043c-1.225-.735-.123-2.572 1.102-1.837z"/>
        <path fill="#5D90E3" d="M9.885 19.263c0-.118.043-.23.097-.34l2.75-5.81c.182-.382.514-.581.963-.519l.096.014c.45.063.77.354.953.786l2.75 6.582a.885.885 0 0 1 .086.343c0 .44-.343.744-.781.683-.375-.053-.632-.313-.782-.677l-.556-1.351-3.489-.489-.567 1.248c-.14.301-.417.455-.76.407a.9.9 0 0 1-.76-.877zm2.697-2.148l2.269.318-1.134-2.845-1.135 2.527zM15.088 38.876v-6.287c0-.471.372-.895.843-.96l2.826-.394c.91-.127 1.632.025 2.092.41.361.322.537.735.537 1.283 0 .93-.493 1.503-1.063 1.9.92.212 1.512.666 1.512 1.74 0 1.478-1.183 2.376-2.98 2.626l-2.924.408c-.47.065-.843-.255-.843-.726zm1.632-4.105l1.687-.235c.8-.11 1.303-.455 1.303-1.08v-.021c0-.537-.427-.795-1.194-.688l-1.796.25v1.774zm0 3.242l2.136-.297c.81-.113 1.303-.477 1.303-1.09v-.022c0-.57-.427-.85-1.369-.719l-2.07.288v1.84zM32.593 37.148c1.24-.188 2.057-.673 2.757-1.394a.906.906 0 0 0 .276-.625c0-.413-.35-.7-.764-.637a.9.9 0 0 0-.488.254c-.498.479-.986.786-1.728.899-1.357.206-2.3-.786-2.3-2.143 0-1.378.964-2.638 2.3-2.84.636-.097 1.145.038 1.633.335a.77.77 0 0 0 .488.085c.445-.068.806-.472.806-.917a.687.687 0 0 0-.319-.599c-.646-.39-1.431-.578-2.597-.401-2.365.358-4.019 2.401-4.019 4.596 0 2.237 1.686 3.731 3.955 3.387z"/>
    </g>
</svg>
