<svg xmlns="http://www.w3.org/2000/svg" width="43" height="37" viewBox="0 0 43 37">
    <g fill="none" fill-rule="evenodd">
        <path d="M-1-4h45v45H-1z" opacity=".1"/>
        <g transform="rotate(-32 17.707 -20.671)">
            <path fill="#FFF" d="M1.071 1.524H11.4v33.57H1.071z"/>
            <path fill="#FCF6B3" d="M1.071 6.259H11.4v3.443H1.071zM1.071 26.917H11.4v3.443H1.071z"/>
            <path fill="#192230" fill-rule="nonzero" d="M2.143 2.596v31.427h8.186V2.596H2.143zM1.07.453h10.33c.591 0 1.071.48 1.071 1.071v33.57c0 .592-.48 1.072-1.071 1.072H1.07C.48 36.166 0 35.686 0 35.094V1.524C0 .933.48.453 1.071.453z"/>
            <path fill="#192230" fill-rule="nonzero" d="M1.502 7.33h9.623a1.071 1.071 0 1 0 0-2.143H1.502a1.071 1.071 0 0 0 0 2.143zM1.502 27.989h9.623a1.071 1.071 0 1 0 0-2.143H1.502a1.071 1.071 0 1 0 0 2.143zM1.502 10.773h9.623a1.071 1.071 0 1 0 0-2.143H1.502a1.071 1.071 0 0 0 0 2.143zM1.502 31.432h9.623a1.071 1.071 0 1 0 0-2.143H1.502a1.071 1.071 0 0 0 0 2.143z"/>
            <circle cx="6.236" cy="17.449" r="3.013" fill="#5D90E3"/>
        </g>
        <path fill="#FFF" d="M1.423 1.735h13.316v33.57H1.423z"/>
        <path fill="#FCF6B3" d="M1.423 26.698h13.316v9.038H1.423z"/>
        <path fill="#192230" fill-rule="nonzero" d="M2.494 2.807v31.427h11.173V2.807H2.494zM1.423.664h13.315c.592 0 1.072.48 1.072 1.071v33.57c0 .592-.48 1.072-1.072 1.072H1.423c-.592 0-1.072-.48-1.072-1.072V1.735c0-.591.48-1.071 1.072-1.071z"/>
        <path fill="#192230" fill-rule="nonzero" d="M2.85 28.2h11.62a1.071 1.071 0 1 0 0-2.143H2.85a1.071 1.071 0 1 0 0 2.142zM5.851 32.288h4.459a1.071 1.071 0 1 0 0-2.143H5.85a1.071 1.071 0 1 0 0 2.143z"/>
        <path fill="#FCF6B3" fill-rule="nonzero" d="M8.08 9.061a.87.87 0 1 0 0-1.74.87.87 0 0 0 0 1.74z"/>
        <path fill="#192230" fill-rule="nonzero" d="M8.08 9.061a.87.87 0 1 0 0-1.74.87.87 0 0 0 0 1.74zm0 2.143a3.013 3.013 0 1 1 0-6.026 3.013 3.013 0 0 1 0 6.026z"/>
    </g>
</svg>
