<svg xmlns="http://www.w3.org/2000/svg" width="28" height="43" viewBox="0 0 28 43">
    <g fill="none" fill-rule="evenodd" transform="translate(-8 -2)">
        <path d="M0 0h45v45H0z" opacity=".1"/>
        <path fill="#FFF" d="M9.643 13.252l2.255 3.35v27.101H32.2V16.602l2.256-3.35z"/>
        <path fill="#FCF6B3" d="M14.718 21.147v19.838H29.38V21.147z"/>
        <path fill="#192230" fill-rule="nonzero" d="M10.827 16.929v26.774c0 .592.48 1.071 1.071 1.071H32.2c.592 0 1.072-.48 1.072-1.071V16.929l2.073-3.079a1.071 1.071 0 1 0-1.778-1.197l-2.255 3.35c-.12.177-.183.386-.183.599v26.03H12.97v-26.03c0-.213-.064-.422-.183-.599l-2.255-3.35a1.071 1.071 0 0 0-1.778 1.197l2.073 3.079z"/>
        <path fill="#192230" fill-rule="nonzero" d="M31.635 36.53h-4.51a1.071 1.071 0 1 0 0 2.143h4.51a1.071 1.071 0 1 0 0-2.143zM31.635 32.173h-4.51a1.071 1.071 0 1 0 0 2.143h4.51a1.071 1.071 0 1 0 0-2.143zM31.635 27.816h-4.51a1.071 1.071 0 1 0 0 2.143h4.51a1.071 1.071 0 1 0 0-2.143zM31.635 23.459h-4.51a1.071 1.071 0 1 0 0 2.143h4.51a1.071 1.071 0 1 0 0-2.143z"/>
        <circle cx="26.56" cy="15.508" r="2.256" fill="#5D90E3"/>
        <circle cx="21.485" cy="13.816" r="1.692" fill="#5D90E3"/>
        <circle cx="17.538" cy="16.635" r="1.128" fill="#5D90E3"/>
        <circle cx="19.229" cy="9.305" r="1.692" fill="#5D90E3"/>
        <circle cx="29.944" cy="9.868" r="1.128" fill="#5D90E3"/>
        <circle cx="25.996" cy="8.177" r="1.692" fill="#5D90E3"/>
        <circle cx="22.049" cy="3.102" r="1.128" fill="#5D90E3"/>
        <circle cx="15.282" cy="12.124" r="1.128" fill="#5D90E3"/>
    </g>
</svg>
